#!OML:ASF E:\Mandelcareful walks\Project 1\Capture day 1\Session 1\Subject1.ASF
:FULLY-SPECIFIED
:DEGREES
668
root -2.47209 15.3436 2.04464 193.941 35.3867 -186.684
lowerback 26.0148 -0.450317 -7.11181
upperback 4.84848 -1.96 -3.26411
thorax -8.87799 -0.405999 1.028
lowerneck -33.0745 1.82446 -3.91728
upperneck 18.1038 5.41411 -3.6883
head 11.2512 1.6698 0.243963
rclavicle 9.97899e-014 -5.88403e-014
rhumerus -16.2006 15.1844 -88.3815
rradius 79.0002
rwrist -13.4312
rhand -9.23141 -31.0744
rfingers 7.12502
rthumb 16.7237 -60.3741
lclavicle 9.97899e-014 -5.88403e-014
lhumerus -11.6557 -44.1747 77.7197
lradius 72.3721
lwrist 7.36057
lhand -10.0606 -8.43246
lfingers 7.12502
lthumb 15.9253 20.9328
rfemur -48.8593 -13.0127 1.16247
rtibia 49.9822
rfoot -14.0405 1.67959
rtoes -11.9239
lfemur -46.246 22.4201 -20.4713
ltibia 54.4983
lfoot -18.6681 11.5664
ltoes -26.0686
669
root -2.44013 15.3429 2.04868 193.928 34.9432 -186.871
lowerback 25.9701 -0.502039 -7.12338
upperback 4.85487 -2.01898 -3.21162
thorax -8.84118 -0.433746 1.11172
lowerneck -33.123 1.7927 -3.99166
upperneck 18.2389 5.39214 -3.60197
head 11.3054 1.6596 0.284892
rclavicle -2.66371e-014 -4.37326e-015
rhumerus -16.1974 15.1007 -88.0839
rradius 78.8343
rwrist -13.7173
rhand -9.394 -30.7261
rfingers 7.12502
rthumb 16.5671 -60.0389
lclavicle -2.66371e-014 -4.37326e-015
lhumerus -12.3031 -42.9219 78.9803
lradius 72.423
lwrist 6.55345
lhand -10.0964 -9.20576
lfingers 7.12502
lthumb 15.8908 20.1622
rfemur -48.8224 -13.3961 1.15514
rtibia 50.2748
rfoot -14.3736 1.61639
rtoes -12.3023
lfemur -46.2672 21.9372 -20.4208
ltibia 54.4665
lfoot -18.5239 11.8271
ltoes -25.8996
670
root -2.39618 15.3559 2.05221 193.578 34.4793 -187.019
lowerback 26.3078 -0.540259 -7.12201
upperback 4.92746 -2.07058 -3.2312
thorax -8.92833 -0.445061 1.10764
lowerneck -33.0278 1.75857 -4.07655
upperneck 18.2803 5.30134 -3.33358
head 11.2919 1.64744 0.380553
rclavicle 6.71892e-014 -4.96962e-014
rhumerus -16.6184 14.5187 -88.6019
rradius 78.8467
rwrist -13.3691
rhand -9.23989 -30.574
rfingers 7.12502
rthumb 16.7155 -59.8743
lclavicle 6.71892e-014 -4.96962e-014
lhumerus -12.9985 -41.5927 79.9862
lradius 72.8063
lwrist 6.27708
lhand -11.2459 -9.295
lfingers 7.12502
lthumb 14.7836 20.1577
rfemur -48.2515 -13.373 1.0355
rtibia 50.5011
rfoot -14.8277 1.27637
rtoes -12.367
lfemur -45.7361 21.6284 -20.1759
ltibia 54.3035
lfoot -18.4977 11.8057
ltoes -25.9967
671
root -2.40526 15.3262 2.05912 194.424 35.3276 -187.072
lowerback 25.4045 -0.262256 -6.88743
upperback 4.6663 -1.67043 -3.61346
thorax -8.81082 -0.289391 0.415609
lowerneck -32.7441 1.7232 -3.9361
upperneck 18.1509 5.09887 -3.12988
head 11.1905 1.60137 0.393409
rclavicle -7.87187e-014 -4.8901e-014
rhumerus -16.978 13.7168 -89.1226
rradius 78.897
rwrist -13.3207
rhand -8.84481 -30.7949
rfingers 7.12502
rthumb 17.0958 -60.0627
lclavicle -7.87187e-014 -4.8901e-014
lhumerus -13.7939 -40.0674 80.8931
lradius 73.4746
lwrist 6.29359
lhand -13.0553 -9.13284
lfingers 7.12502
lthumb 13.0399 20.4396
rfemur -49.9155 -13.2446 1.14718
rtibia 50.7322
rfoot -14.4688 1.59416
rtoes -12.1029
lfemur -46.8691 22.1077 -20.7286
ltibia 54.3514
lfoot -18.5051 11.8848
ltoes -25.8225
672
root -2.36547 15.3362 2.06048 194.149 34.7552 -187.088
lowerback 25.7922 -0.397296 -6.56944
upperback 4.75625 -1.76866 -3.65944
thorax -8.91753 -0.331503 0.2155
lowerneck -32.6402 1.79813 -3.63486
upperneck 18.0655 5.11154 -3.3497
head 11.1564 1.60361 0.265564
rclavicle 5.84427e-014 -4.77083e-015
rhumerus -17.1131 13.1919 -89.3241
rradius 78.9502
rwrist -13.5129
rhand -9.09979 -30.8887
rfingers 7.12502
rthumb 16.8504 -60.1777
lclavicle 5.84427e-014 -4.77083e-015
lhumerus -14.3449 -37.7745 81.9382
lradius 73.9036
lwrist 6.40482
lhand -13.9869 -9.68556
lfingers 7.12502
lthumb 12.1417 19.9421
rfemur -49.3164 -13.428 1.19721
rtibia 50.9072
rfoot -14.811 1.42743
rtoes -11.631
lfemur -46.4178 21.8621 -20.4179
ltibia 54.2105
lfoot -18.5623 11.3435
ltoes -25.8028
673
root -2.32964 15.3382 2.07198 194.115 34.9685 -186.941
lowerback 25.9949 -0.268926 -6.79071
upperback 4.78336 -1.66075 -3.49275
thorax -8.98153 -0.270871 0.492578
lowerneck -32.7338 1.97989 -3.58717
upperneck 18.0502 5.4554 -3.73351
head 11.1841 1.71175 0.17994
rclavicle -7.63333e-014 3.57812e-014
rhumerus -17.1208 13.3801 -89.225
rradius 79.0379
rwrist -13.7013
rhand -10.1111 -30.9372
rfingers 7.12502
rthumb 15.8766 -60.3063
lclavicle -7.63333e-014 3.57812e-014
lhumerus -14.5214 -34.8558 82.9931
lradius 73.8366
lwrist 6.57983
lhand -14.2092 -11.0864
lfingers 7.12502
lthumb 11.9274 18.5538
rfemur -49.3284 -12.94 1.34544
rtibia 51.1028
rfoot -15.0152 1.24856
rtoes -11.4254
lfemur -46.2054 22.3727 -20.1985
ltibia 54.1752
lfoot -18.565 11.0426
ltoes -26.3486
674
root -2.31179 15.3314 2.0784 194.119 34.8834 -187.041
lowerback 26.0613 -0.349503 -6.72584
upperback 4.76553 -1.75343 -3.42948
thorax -9.03135 -0.315591 0.556791
lowerneck -32.7897 2.08177 -3.78257
upperneck 18.1093 5.70548 -3.77097
head 11.2133 1.80333 0.2437
rclavicle -2.34566e-014 5.96354e-015
rhumerus -17.1169 13.7724 -89.1319
rradius 79.0707
rwrist -13.8829
rhand -10.2264 -31.2233
rfingers 7.12502
rthumb 15.7656 -60.6012
lclavicle -2.34566e-014 5.96354e-015
lhumerus -14.6302 -32.3636 83.9193
lradius 73.9232
lwrist 7.51087
lhand -14.6825 -11.6173
lfingers 7.12502
lthumb 11.4709 18.0489
rfemur -49.4543 -12.9573 1.31662
rtibia 51.2972
rfoot -15.1366 1.20338
rtoes -11.525
lfemur -46.2578 22.4116 -20.2749
ltibia 54.0525
lfoot -18.3745 10.9816
ltoes -27.2164
